<svg xmlns="http://www.w3.org/2000/svg" width="1745.717" height="969.004" viewBox="0 0 1745.717 969.004">
  <g id="Birds" transform="translate(-130.884 -39.444)">
    <g id="Solid" opacity="0.1">
      <path id="Path_45" data-name="Path 45" d="M446.4,932.566l22.528,11.857-5.926,27.258,3.247,31.02,22.18,5.49,12.192-32.367,3.236-27,25.656,6.548h6.49l-1.648-13.611-12.8-4.913-23.9-4.284,6.208-3.507v-8.04L479.39,872.777l-13.137-5.183-6.559,17.069v23.942l9.238,9.456v5.256l-15.249,1.97Z" fill="#fff"/>
      <path id="Path_46" data-name="Path 46" d="M1774.971,917.023l24.5,11.958-7.326,20.557,3.233,58.909h15.586l29.75-76.106,27.229,6.4,8.657-3.808-5.782-17.913h-33.1l6.492-6.578L1804.061,885.9l-11.915,6.126,7.326,12.585-20.169,5.836Z" fill="#fff"/>
      <path id="Path_47" data-name="Path 47" d="M145.919,95.641l111.6,115.935,25.91-6.982L300,239.549l26.757,23.007,20.4-26.714V211.575l34.621,18.309,88.692-9.925,17.449,24.7,18.121,13.673L487.919,298.07l67.631,5.516,53.582-18.068,130.643-27.192,5.215-13.673-129.643-8.813,38.983-35.548H615.347l6.849-15.636-13.064-8.846-39.186,50.342-51.614-41.5L487.919,95.641H480.07l-9.6,94.864L411.942,175.81l-34.854-23.127,4.69-23.722,42.309-33.32-33.545-5.784-13.453,5.784V59.567l-37.881,62.6-29.642,18.552-30.59-11.762-34.749,7.2L145.919,79.491Z" fill="#fff"/>
      <path id="Path_48" data-name="Path 48" d="M1344.081,221.323l32.871,59.434,69.624,50.636,22.728-4.561-9.343-6.247h42.458l60.847,40.983h8.4L1551.6,331.393l11.668,4.727,8.4-9.288-76.62-53.886,16.252-14.352,9.439-30.259,59.488-49.36H1551.6l-73.9,23.268L1459.962,162.5l13.426-123.051L1452.854,55.76l-62.525,123.214,15.276,36.789-35.183-9.374Z" fill="#fff"/>
      <path id="Path_49" data-name="Path 49" d="M861.233,623.417l26.557,11.24-4.621,10.366,11.523,16.908,28.58-4.16,4.862-17.934v-5.179l31.319,5.179V626.6l-36.181-9.251V557.566l-4.71-11.81,4.71-11.619L905.7,522.44l-20.13,35.126-2.4,52.044L866.3,614.774Z" transform="translate(-107 -35)" fill="#fff"/>
      <path id="Path_50" data-name="Path 50" d="M1716.608,137.835l22.595,11.442,16.555,32.248,30.8-4.293-11.708-27.956,27.027,11.36L1807.224,131h-5.344l-27.027,6.834,19.679-77.09h-23.137l-26.087,39.084-6.1,26.67h-16.555Z" fill="#fff"/>
      <path id="Path_51" data-name="Path 51" d="M1683.111,555.328l25.236,9.046v14.958l-3.874,12.816,9.35,46.364,9.572,5.1,6.75-5.1,12.137-34.073,1.8-36.859,23.348,9.788,8.137-14.84L1767.426,541h-7.545l-15.8,3.623-13.934-61.717-16.322-22.18-9.35,6.015-4.138,48.552,8.013,23.634-8.013,5.7-11.655,1.965Z" fill="#fff"/>
      <path id="Path_52" data-name="Path 52" d="M1259.268,592.362,1283.3,602.6l-7.026,16.189v43.417l7.026,15.7,17.348-12.474,15.693-46.639V606.4l16.394,4.035,14.126,3.343,5.169-11.175-9.644-10.241-26.045-3.872V571.641l-6.81-26.4-8.883-6.434L1283.3,556.933V582.02l-18.828,3.094Z" fill="#fff"/>
      <path id="Path_53" data-name="Path 53" d="M1046.115,147.444l26.418,9.711v10.5l-11.942,28.8-4.237,38.332,12.23,7.309,11.765-7.309,14.3-17.034,12.643-33.538V163.069h6l14.662,11.077h8.686l3.427-23.651-6.671-14.517h-8.666l-6.861,4.522h-7.59l-2.99-16.591-4.281-10.852L1094.647,91.4,1076,61.6l-13.6-2.081-6.048,16.715,6.048,33.708,11.823,24.286-8.493,6.273-13.6-1.86Z" fill="#fff"/>
    </g>
    <g id="Border" opacity="0.5">
      <path id="Path_39" data-name="Path 39" d="M908.627,331.153,873,310.3l-18.162-19.045-23.644-9.007,4.566-5.719,23.509-2.184,3.1-12.341,2.512-16.245,43.746-31.427,11.4,4.985L903.2,249.559l-9.917,29.858,4.051,8.684,25.468,3.155v13.1l-6.612,4.452-22.03-8.477,5.5,13.539Z" fill="none" stroke="#fff" stroke-width="1"/>
      <path id="Path_40" data-name="Path 40" d="M1125.426,940.318l-29.744-12.59-23.761-3.374-30.764-14.129,8.389-7.518h14.569l7.806-17.43-22.375-11.71,4.812-3.583L1077.335,865l4.043-24.922,24.74-25.29,26.621-10.325,6.522,8.116-13.836,22.387-7.36,17.969,10.579,7.045v10l-10.579,3.583h21.2l3.61,15.488v7.963l-18.944-2.656,8.812,14.088-24.788-11.432v13.207l-14.637-3.524-3.241,3.524,3.241,3.161,24.751,5.025,21.2,5.944v7.641l-17.131-2.177-7.931-2.09Z" fill="none" stroke="#fff" stroke-width="1"/>
      <path id="Path_41" data-name="Path 41" d="M1526.484,832.7l2.868-9.031,23.043-3.624L1548.533,796l29.2-28.11,11.935,22.866v35.377l33.737,1.456,4.684,12.8-4.684,11.534-33.737-6.733-.949,20.857-10.987,56.744-7.55,1.266-21.649-58.01,5.578-23.278-17.472-11.378Z" fill="none" stroke="#fff" stroke-width="1"/>
      <path id="Path_42" data-name="Path 42" d="M584.352,793.762l5.743-9.091,24.546,1.827V782.77l-8.021-5.435,12.1-14.255,14.449-36.866L616.68,716.148l-7.12-2.719,5.082-6.844h18.525V690.817l10.724-46.939,15,4.324,12.361,42.614v25.332h-7.973l7.973,6.611,24.138,7.075v14.418H682.75l-17.232-10.38-2.245,20.8-7.584,8.41v11.678l-7.952,4.826,3.821,11.758-3.821,4.531,27.978,5.218,7.034,14.662-7.034,3.791-31.826-9.582L641.6,826.186,616.68,867.313l-23.047,4.044,5.542-55.6,10.385-11.193-12.966-10.8Z" transform="translate(1025 -563)" fill="none" stroke="#fff" stroke-width="1"/>
      <path id="Path_43" data-name="Path 43" d="M131.851,902.873l28.416,10.2-8.307,21.521,19.163,52.728,15-2.716,4.883-26.678,5.437-42.112,34.242,1.8V902.873l-39.679-6.293,14.9-8.913,4.146-18.905L222.2,848.933l31.107,2.384,4.244-5.877L219.6,831.6l-5.844-25.419-17.312-22.816-12.056,20.65,1.736,17.063-4.35,5.943H163.594l2.818,6.8,17.975,8.9-10.674,6.213L157.39,862.475v29.2l-15.792,2.63Z" fill="none" stroke="#fff" stroke-width="1"/>
      <path id="Path_44" data-name="Path 44" d="M363.882,578.6l11.4,2.208,21.044,12.609-4.5,6.087,6.656,16.536,36.628,34.453H439.5V634.653l-4.394-18.611L427.7,604.063l7.412-8.972,21.187,4.414h10.326v-9.579L456.3,580.81,431.142,578.6l-3.445-9.651L439.5,570.8l4.3-1.847-14.561-9.338-35.887-8.157V561.5l2.976,6.116L384.965,570.8l-17.928-1.847Z" fill="none" stroke="#fff" stroke-width="1"/>
    </g>
  </g>
</svg>
