<svg xmlns="http://www.w3.org/2000/svg" width="533.063" height="434.946" viewBox="0 0 533.063 434.946">
    <style>
        .bird-1 {
            animation: bird-1 2s infinite;
        }

        .bird-2 {
            animation: bird-2 2s infinite;
        }

        .bird-3 {
            animation: bird-3 2s infinite;
        }

        .bird-4 {
            animation: bird-4 2s infinite;
        }

        @keyframes bird-1 {
            0% {
                opacity: 0;
            }

            100% {
                opacity: 1;
            }
        }

        @keyframes bird-2 {
            0% {
                opacity: 0;
            }

            10% {
                opacity: 0;
            }

            90% {
                opacity: 1;
            }

            98% {
                opacity: 0.3;
            }

            100% {
                opacity: 0;
            }
        }

        @keyframes bird-3 {
            0% {
                opacity: 0;
            }

            15% {
                opacity: 0;
            }

            90% {
                opacity: 1;
            }

            96% {
                opacity: 0.4;
            }

            100% {
                opacity: 0;
            }
        }

        @keyframes bird-4 {
            0% {
                opacity: 0;
            }

            20% {
                opacity: 0;
            }

            90% {
                opacity: 1;
            }

            94% {
                opacity: 0.5;
            }

            100% {
                opacity: 0;
            }
        }
    </style>
    <g id="Image" transform="translate(-1155.362 -207.891)">
        <path class="bird-1" id="Path_61" data-name="Path 61"
            d="M407.541,561.557l-4.845.821-8.943,4.692,1.913,2.265-2.829,6.153-15.565,12.82h-1.867v-5.895l1.867-6.925,3.15-4.457-3.15-3.339-9,1.643h-4.388v-3.564l4.388-3.392,10.689-.821,1.464-3.591-5.017.687-1.825-.687,6.188-3.475,15.25-3.035v3.736l-1.265,2.276,4.828,1.186,7.618-.687Z"
            transform="matrix(0.875, -0.485, 0.485, 0.875, 570.485, 304.025)" fill="none" stroke="#f45b69"
            stroke-width="1" stroke-dasharray="1" />
        <path class="bird-2" id="Path_63" data-name="Path 63"
            d="M461.125,573.955l-10.79,1.83-19.919,10.45,4.261,5.045-6.3,13.706L393.709,633.54H389.55V620.41l4.159-15.425,7.016-9.928-7.016-7.436-20.053,3.659h-9.774v-7.939l9.774-7.556,23.808-1.83,3.261-8-11.175,1.531-4.066-1.531,13.782-7.74,33.967-6.761v8.321l-2.817,5.069,10.754,2.642,16.969-1.531Z"
            transform="matrix(0.875, -0.485, 0.485, 0.875, 603.557, 193.307)" fill="none" stroke="#f45b69"
            stroke-width="2" />
        <path class="bird-3" id="Path_64" data-name="Path 64"
            d="M527.988,589.425l-18.21,3.088-33.614,17.636,7.192,8.514-10.632,23.129L414.218,689.98H407.2V667.823l7.019-26.031,11.84-16.755-11.84-12.549-33.841,6.174H363.882v-13.4l16.494-12.751,40.178-3.088,5.5-13.5L407.2,578.511l-6.861-2.584L423.6,562.865l57.322-11.409V565.5l-4.754,8.554,18.149,4.458,28.637-2.584Z"
            transform="matrix(0.875, -0.485, 0.485, 0.875, 710.391, 203.943)" fill="none" stroke="#0094c9"
            stroke-width="7" />
        <path class="bird-4" id="Path_65" data-name="Path 65"
            d="M1072.4,1047.752l53.265-22.547,42.552-6.043,55.093-25.3L1208.285,980.4H1182.2l-13.98-31.214,40.07-20.97-8.617-6.416-41.149-8.921-7.24-44.63-44.305-45.289-47.674-18.49L1047.621,819l24.777,40.091,13.181,32.178-18.945,12.617V921.8l18.945,6.416h-37.958l-6.465,27.736v14.261l33.926-4.757L1059.3,990.681l44.39-20.473V993.86l26.213-6.312,5.8,6.312-5.8,5.66-44.325,9-37.958,10.645v13.683l30.678-3.9,14.2-3.742Z"
            transform="translate(78.364 352.557) rotate(-39)" fill="#0094c9" />
    </g>
</svg>