<svg xmlns="http://www.w3.org/2000/svg" width="554.065" height="445.402" viewBox="0 0 554.065 445.402">
    <style>
        .path {
            animation: dash 25s infinite linear;
            fill: none;
            stroke: #f45b69;
            stroke-width: 5;
            stroke-dasharray: 10;
        }

        @keyframes dash {
            to {
                stroke-dashoffset: 750;
            }
        }
    </style>
    <g id="_1" data-name="1" transform="translate(-1148.013 -201.165)">
        <path class="path" id="Path_56" data-name="Path 56"
            d="M584.352,793.762l5.743-9.091,24.546,1.827V782.77l-8.021-5.435,12.1-14.255,14.449-36.866L616.68,716.148l-7.12-2.719,5.082-6.844h18.525V690.817l10.724-46.939,15,4.324,12.361,42.614v25.332h-7.973l7.973,6.611,24.138,7.075v14.418H682.75l-17.232-10.38-2.245,20.8-7.584,8.41v11.678l-7.952,4.826,3.821,11.758-3.821,4.531,27.978,5.218,7.034,14.662-7.034,3.791-31.826-9.582L641.6,826.186,616.68,867.313l-23.047,4.044,5.542-55.6,10.385-11.193-12.966-10.8Z"
            transform="translate(720.648 -377)" />
        <path class="path" id="Path_57" data-name="Path 57"
            d="M908.627,331.153,873,310.3l-18.162-19.045-23.644-9.007,4.566-5.719,23.509-2.184,3.1-12.341,2.512-16.245,43.746-31.427,11.4,4.985L903.2,249.559l-9.917,29.858,4.051,8.684,25.468,3.155v13.1l-6.612,4.452-22.03-8.477,5.5,13.539Z"
            transform="translate(325 -6)" />
        <path class="path" id="Path_58" data-name="Path 58"
            d="M1344.081,221.323l32.871,59.434,69.624,50.636,22.728-4.561-9.343-6.247h42.458l60.847,40.983h8.4L1551.6,331.393l11.668,4.727,8.4-9.288-76.62-53.886,16.252-14.352,9.439-30.259,59.488-49.36H1551.6l-73.9,23.268L1459.962,162.5l13.426-123.051L1452.854,55.76l-62.525,123.214,15.276,36.789-35.183-9.374Z"
            transform="translate(108 280)" />
        <path class="path" id="Path_59" data-name="Path 59"
            d="M889.954,303.6l-27.036-15.934-13.782-14.554-17.942-6.883,3.465-4.37,17.84-1.669,2.353-9.43,1.906-12.414,33.2-24.015,8.648,3.81-12.765,23.109-7.526,22.816,3.074,6.636,19.326,2.411v10.014l-5.017,3.4-16.718-6.478,4.177,10.346Z"
            transform="matrix(-0.087, 0.996, -0.996, -0.087, 1973.949, -591.147)" />
        <path class="path" id="Path_60" data-name="Path 60"
            d="M584.352,793.762l5.743-9.091,24.546,1.827V782.77l-8.021-5.435,12.1-14.255,14.449-36.866L616.68,716.148l-7.12-2.719,5.082-6.844h18.525V690.817l10.724-46.939,15,4.324,12.361,42.614v25.332h-7.973l7.973,6.611,24.138,7.075v14.418H682.75l-17.232-10.38-2.245,20.8-7.584,8.41v11.678l-7.952,4.826,3.821,11.758-3.821,4.531,27.978,5.218,7.034,14.662-7.034,3.791-31.826-9.582L641.6,826.186,616.68,867.313l-23.047,4.044,5.542-55.6,10.385-11.193-12.966-10.8Z"
            transform="matrix(-0.017, 1, -1, -0.017, 2039.978, -42.931)" />
    </g>
</svg>