<svg height="435.333" id="love-bird-svg" viewBox="0 0 531.39 435.333" width="531.39" xmlns="http://www.w3.org/2000/svg">
  <style>
    #Solid {
    animation: solid 1s infinite;
    }

    #Border {
    animation: border 1s infinite;
    }

    @keyframes solid {
    0% {
    opacity: 1;
    }

    50% {
    opacity: 0.5;

    }

    100% {
    opacity: 1;
    }
    }

    @keyframes border {
    0% {
    opacity: 0.5;
    }

    50% {
    opacity: 1;
    }

    100% {
    opacity: 0.5;
    }
    }
  </style>
  <g data-name="1" id="_1" transform="translate(-1156.61 -208.065)">
    <g id="Solid" opacity="0.9" transform="translate(1156.928 208.065) scale(0.9)">
      <path d="M446.4,925.191,466.375,935.7l-5.253,24.164,2.879,27.5,19.663,4.867,10.808-28.693L497.34,939.6l22.744,5.8h5.753l-1.461-12.066-11.347-4.355-21.191-3.8,5.5-3.109v-7.128l-21.694-42.766L464,867.594l-5.814,15.131V903.95l8.189,8.383v4.66l-13.518,1.746Z"
            data-name="Path 45"
            fill="#0094c9"
            id="Path_45" transform="translate(-344.282 -715.893)"/>
      <path d="M1774.971,913.49l21.72,10.6-6.495,18.223,2.866,52.223h13.817l26.373-67.467,24.139,5.675,7.674-3.375-5.125-15.88H1830.6l5.755-5.831L1800.759,885.9l-10.563,5.431,6.495,11.156-17.88,5.174Z"
            data-name="Path 46"
            fill="#0094c9"
            id="Path_46" transform="translate(-1334.074 -560.857)"/>
      <path d="M145.919,91.546l98.935,102.775,22.969-6.189,14.685,30.987,23.72,20.4,18.087-23.682V194.321l30.691,16.23,78.625-8.8L449.1,223.645l16.064,12.121L449.1,271l59.954,4.89,47.5-16.017,115.814-24.105,4.623-12.121-114.928-7.812,34.558-31.513H562.063l6.071-13.861-11.581-7.842-34.738,44.628L476.06,170.458,449.1,91.546h-6.958l-8.51,84.1-51.885-13.026-30.9-20.5,4.157-21.03,37.507-29.538-29.738-5.127-11.926,5.127V59.567l-33.582,55.5L290.99,131.511l-27.118-10.427-30.8,6.381L145.919,77.23Z"
            data-name="Path 47"
            fill="#0094c9"
            id="Path_47" transform="translate(-145.919 -44.052)"/>
      <path d="M1344.081,200.678l29.14,52.688,61.721,44.889,20.148-4.043-8.283-5.538h37.639L1538.388,325h7.443l-17.787-26.75,10.344,4.19,7.443-8.234-67.923-47.77,14.407-12.723,8.367-26.824,52.735-43.758h-25.374l-65.511,20.627-15.724-35.235,11.9-109.084-18.2,14.464L1385.08,163.136l13.542,32.613-31.19-8.31Z"
            data-name="Path 48"
            fill="#0094c9"
            id="Path_48" transform="translate(-1344.399 103.26)"/>
      <path d="M861.233,611.955l23.543,9.965-4.1,9.19L890.894,646.1l25.336-3.688,4.31-15.9V621.92l27.764,4.591V614.773l-32.074-8.2V553.579l-4.175-10.47,4.175-10.3L900.652,522.44l-17.845,31.139-2.128,46.136-14.952,4.578Z"
            data-name="Path 49"
            fill="#0094c9"
            id="Path_49" transform="translate(-639.151 -522.44)"/>
      <path d="M1716.608,129.084l20.03,10.143,14.676,28.588,27.306-3.806-10.379-24.782L1792.2,149.3l4.738-26.271H1792.2l-23.959,6.058,17.445-68.34h-20.511l-23.126,34.648-5.411,23.643h-14.676Z"
            data-name="Path 50"
            fill="#0094c9"
            id="Path_50" transform="translate(-1423.18 171.232)"/>
      <path d="M1683.111,544.59l22.371,8.019v13.26l-3.435,11.361,8.289,41.1,8.486,4.517,5.984-4.517,10.76-30.205,1.593-32.675,20.7,8.677,7.214-13.155-7.214-19.086h-6.688l-14.009,3.212-12.352-54.711-14.469-19.663-8.289,5.332-3.668,43.041,7.1,20.952-7.1,5.049-10.332,1.742Z"
            data-name="Path 51"
            fill="#0094c9"
            id="Path_51" transform="translate(-1431.548 -302.671)"/>
      <path d="M1259.268,586.283l21.3,9.079-6.229,14.351V648.2l6.229,13.915,15.379-11.058,13.912-41.345V598.728l14.533,3.577,12.523,2.963,4.582-9.906-8.549-9.079-23.089-3.432V567.914l-6.037-23.4-7.874-5.7-15.379,16.066v22.239l-16.691,2.743Z"
            data-name="Path 52"
            fill="#0094c9"
            id="Path_52" transform="translate(-901.126 -326.505)"/>
      <path d="M1046.115,137.464l23.42,8.608v9.309l-10.586,25.531-3.756,33.981,10.842,6.48,10.429-6.48,12.674-15.1,11.208-29.731V151.315h5.321l13,9.819h7.7l3.038-20.966-5.914-12.869h-7.682l-6.083,4.009H1103l-2.65-14.708-3.8-9.62-7.413-19.2-16.53-26.422-12.054-1.845-5.361,14.817,5.361,29.882,10.48,21.53-7.529,5.561-12.057-1.649Z"
            data-name="Path 53"
            fill="#0094c9"
            id="Path_53" transform="translate(-877.681 96.019)"/>
    </g>
    <g id="Border" opacity="0.5" transform="translate(1273.657 233.829) scale(0.99)">
      <path d="M899.838,317.893l-31.583-18.485-16.1-16.883-20.96-7.985,4.047-5.07,20.841-1.936,2.748-10.94,2.227-14.4,38.78-27.86,10.1,4.419-14.912,26.809-8.792,26.469,3.592,7.7,22.577,2.8v11.617l-5.861,3.947-19.53-7.515,4.88,12Z"
            data-name="Path 39"
            fill="none"
            id="Path_39" stroke="#f45b69" stroke-width="2" transform="translate(-633.972 -183.643)"/>
      <path d="M1115.86,924.9l-26.368-11.161-21.064-2.991-27.272-12.525,7.437-6.665h12.915l6.92-15.452-19.835-10.381,4.266-3.176,20.37-4.416,3.584-22.093,21.932-22.419,23.6-9.153,5.782,7.195-12.265,19.846-6.525,15.929,9.378,6.246v8.866l-9.378,3.176h18.79l3.2,13.73v7.059l-16.794-2.355,7.812,12.489-21.974-10.134V898.22l-12.976-3.124-2.873,3.124,2.873,2.8,21.942,4.454,18.79,5.269v6.773l-15.187-1.93-7.031-1.852Z"
            data-name="Path 40"
            fill="none"
            id="Path_40" stroke="#f45b69" stroke-width="2" transform="translate(-1041.156 -714.38)"/>
      <path d="M1526.484,825.34l2.543-8.006,20.427-3.213-3.424-21.308,25.885-24.919,10.581,20.271v31.362l29.908,1.291,4.153,11.344-4.153,10.224-29.908-5.969-.841,18.489-9.74,50.3-6.693,1.122-19.192-51.425,4.945-20.635-15.489-10.086Z"
            data-name="Path 41"
            fill="none"
            id="Path_41" stroke="#f45b69" stroke-width="2" transform="translate(-1248.374 -651.374)"/>
      <path d="M584.352,776.749l5.091-8.059,21.76,1.619V767l-7.11-4.818,10.723-12.637,12.809-32.681-14.615-8.924-6.312-2.411,4.5-6.067h16.422V685.489l9.507-41.611,13.294,3.834,10.958,37.777v22.456h-7.068l7.068,5.861,21.4,6.271v12.781h-11.2l-15.276-9.2-1.99,18.437-6.723,7.455V759.9l-7.049,4.278,3.388,10.423-3.388,4.017,24.8,4.626,6.235,13-6.235,3.361-28.214-8.494L635.1,805.493l-22.092,36.459-20.431,3.585,4.913-49.291,9.206-9.922L595.2,776.749Z"
            data-name="Path 42"
            fill="none"
            id="Path_42" stroke="#f45b69" stroke-width="2" transform="translate(-397.901 -437.18)"/>
      <path d="M131.851,889.307l25.191,9.042-7.364,19.078,16.988,46.743,13.3-2.408,4.328-23.65,4.82-37.332,30.355,1.6V889.307l-35.175-5.579,13.208-7.9,3.675-16.759,10.774-17.578,27.576,2.114,3.762-5.21-33.648-12.272-5.18-22.534-15.347-20.226-10.687,18.306,1.539,15.126-3.856,5.268H159.991l2.5,6.027,15.934,7.893-9.462,5.508-14.47,12v25.886l-14,2.332Z"
            data-name="Path 43"
            fill="none"
            id="Path_43" stroke="#f45b69" stroke-width="2" transform="translate(-46.46 -783.362)"/>
      <path d="M363.882,575.521l10.106,1.957,18.656,11.177-3.991,5.4,5.9,14.659,32.47,30.542h3.9V625.209l-3.9-16.5-6.571-10.619,6.571-7.954,18.782,3.913h9.154V585.56l-9.154-8.082-22.3-1.957-3.054-8.555L430.92,568.6l3.808-1.638-12.909-8.278-31.813-7.231v8.9l2.639,5.422L382.572,568.6l-15.893-1.638Z"
            data-name="Path 44"
            fill="none"
            id="Path_44" stroke="#f45b69" stroke-width="2" transform="translate(-258.102 -331.483)"/>
    </g>
  </g>
  <script type="text/javascript"><![CDATA[
    let g = document.querySelector('#love-bird-svg');

    let solid = document.querySelector('#Solid');
    let keepIncreasing = true;
    let startingValue = 0.9
    let intervals = []

    function OscillateValues(increment, max, min, element) {
        if (keepIncreasing && startingValue <= max) {
            startingValue += increment

            if (startingValue >= max) {
                keepIncreasing = false;
            }
        } else {
            startingValue -= increment;

            if (startingValue <= min) {
                keepIncreasing = true;
            }
        }
        element.setAttribute('transform', `translate(1156.928 208.065) scale(${startingValue})`)
    }

    let border = document.querySelector('#Border');
    let keepIncreasing2 = true;
    let startingValue2 = 0.99

    function OscillateValues2(increment, max, min, element) {
        if (keepIncreasing2 && startingValue2 <= max) {
            startingValue2 += increment

            if (startingValue2 >= max) {
                keepIncreasing2 = false;
            }
        } else {
            startingValue2 -= increment;

            if (startingValue2 <= min) {
                keepIncreasing2 = true;
            }
        }

        element.setAttribute('transform', `translate(1273.657 233.829) scale(${startingValue2})`)
    }


    g.addEventListener("mouseenter", (e) => {
        intervals.push(
            setInterval(() => {
                OscillateValues(0.0025, 0.99, 0.9, solid)
            }, 50)
        );

        intervals.push(
            setInterval(() => {
                OscillateValues2(0.0025, 0.99, 0.9, border)
            }, 50)
        );
    }, false);

    g.addEventListener("mouseleave", (e) => {
        intervals.map((interval) => {
            clearInterval(interval);
        })
    }, false);

    ]]></script>
</svg>