<?xml version="1.0" standalone="no"?>
<!DOCTYPE svg PUBLIC "-//W3C//DTD SVG 20010904//EN"
 "http://www.w3.org/TR/2001/REC-SVG-20010904/DTD/svg10.dtd">
<svg version="1.0" xmlns="http://www.w3.org/2000/svg"
 width="896.000000pt" height="896.000000pt" viewBox="0 0 896.000000 896.000000"
 preserveAspectRatio="xMidYMid meet">
<metadata>
Created by potrace 1.11, written by Peter Selinger 2001-2013
</metadata>
<g transform="translate(0.000000,896.000000) scale(0.100000,-0.100000)"
fill="#000000" stroke="none">
<path d="M1207 7984 c-3 -4 -56 -6 -116 -5 l-111 2 0 -3501 0 -3500 63 -1 c34
-1 67 0 72 1 6 1 57 1 115 0 58 -1 112 -2 120 -1 8 0 35 0 60 0 25 0 52 -1 60
0 8 0 116 0 240 0 124 -1 232 -1 240 0 8 0 35 0 60 0 25 0 52 -1 60 0 8 0 62
0 120 0 58 -1 112 -1 120 0 8 0 35 0 60 0 25 0 52 0 60 0 8 0 44 0 80 0 36 -1
72 -1 80 0 8 0 35 0 60 0 25 0 52 -1 60 0 8 0 62 0 120 0 58 -1 112 -1 120 0
8 0 35 0 60 0 25 0 52 -1 60 0 8 0 116 0 240 0 124 -1 232 -1 240 0 8 0 35 0
60 0 25 0 52 -1 60 0 8 0 62 0 120 0 58 -1 112 -1 120 0 8 0 35 0 60 0 25 0
52 -1 60 0 8 0 116 0 240 0 124 -1 232 -1 240 0 8 0 35 0 60 0 25 0 52 -1 60
0 8 0 62 0 120 0 58 -1 112 -1 120 0 8 0 35 0 60 0 25 0 52 0 60 0 8 0 44 0
80 0 36 -1 72 -1 80 0 8 0 35 0 60 0 25 0 52 -1 60 0 8 0 62 0 120 0 58 -1
112 -1 120 0 8 0 35 0 60 0 25 0 52 -1 60 0 8 0 116 0 240 0 124 -1 232 -1
240 0 8 0 35 0 60 0 25 0 52 -1 60 0 8 0 62 0 120 0 58 -1 112 -1 120 0 8 0
35 0 60 0 25 0 52 -1 60 0 8 0 116 0 240 0 124 -1 232 -1 240 0 8 0 35 0 60 0
25 0 52 -1 60 0 8 0 62 0 120 0 58 -1 112 -1 120 0 8 0 35 0 60 0 25 0 52 0
60 0 8 0 44 0 80 0 36 -1 72 -1 80 0 8 0 35 0 60 0 25 0 52 -1 60 0 8 0 45 1
83 0 l67 0 0 3501 0 3500 -22 1 c-13 1 -27 0 -33 -1 -5 -1 -30 -1 -55 0 -25 1
-52 2 -60 1 -8 0 -89 0 -180 0 -91 1 -172 0 -180 0 -8 0 -28 -1 -45 0 -31 0
-47 0 -67 -2 -7 -1 -60 -1 -118 0 -58 0 -130 1 -160 0 -76 -1 -270 0 -300 1
-24 2 -32 1 -62 -1 -7 -1 -60 -1 -118 0 -58 0 -112 0 -120 0 -8 -1 -35 0 -60
0 -25 0 -52 0 -60 0 -8 0 -35 0 -60 0 -25 0 -52 0 -60 0 -8 -1 -62 -1 -120 0
-58 0 -112 0 -120 0 -8 -1 -35 0 -60 0 -25 0 -52 0 -60 0 -8 -1 -116 -1 -240
0 -124 0 -232 0 -240 0 -8 -1 -35 0 -60 0 -25 0 -52 0 -60 0 -8 -1 -62 -1
-120 0 -58 0 -112 0 -120 0 -8 -1 -35 0 -60 0 -25 0 -52 0 -60 0 -8 -1 -116
-1 -240 0 -124 0 -232 0 -240 0 -8 -1 -35 0 -60 0 -25 0 -52 0 -60 0 -20 -1
-224 0 -275 2 -22 1 -47 1 -55 0 -8 0 -89 0 -180 0 -91 1 -172 0 -180 0 -8 0
-28 -1 -45 0 -31 0 -47 0 -67 -2 -7 -1 -60 -1 -118 0 -58 0 -130 1 -160 0 -76
-1 -270 0 -300 1 -24 2 -32 1 -62 -1 -7 -1 -60 -1 -118 0 -58 0 -112 0 -120 0
-8 -1 -35 0 -60 0 -25 0 -52 0 -60 0 -8 0 -35 0 -60 0 -25 0 -52 0 -60 0 -8
-1 -62 -1 -120 0 -58 0 -112 0 -120 0 -8 -1 -35 0 -60 0 -25 0 -52 0 -60 0
-25 -2 -473 0 -515 2 -22 0 -47 1 -55 0 -49 -2 -224 1 -230 4 -4 3 -10 2 -13
-1z"/>
</g>
</svg>
